<?xml version="1.0" encoding="utf-8"?>
<!-- Generator: Adobe Illustrator 22.1.0, SVG Export Plug-In . SVG Version: 6.00 Build 0)  -->
<svg version="1.1" id="Layer_1" xmlns="http://www.w3.org/2000/svg" xmlns:xlink="http://www.w3.org/1999/xlink" x="0px" y="0px"
	 viewBox="0 0 150 150" enable-background="new 0 0 150 150" xml:space="preserve">
<g>
	<g>
		<path fill="#00A3EE" d="M62.4,148.9c-0.2,0-0.4,0-0.6-0.1c-18.8-3.3-35.5-13.6-47-29c-1.1-1.5-0.8-3.6,0.7-4.7
			c1.5-1.1,3.6-0.8,4.7,0.7c10.5,14,25.7,23.4,42.8,26.5c1.8,0.3,3,2.1,2.7,3.9C65.4,147.8,64,148.9,62.4,148.9z"/>
	</g>
	<g>
		<path fill="#00A3EE" d="M75,150c-1.8,0-3.3-1.5-3.3-3.3s1.5-3.3,3.3-3.3c37.7,0,68.3-30.6,68.3-68.3S112.7,6.7,75,6.7
			c-2.1,0-4.3,0.1-6.4,0.3c-1.8,0.2-3.5-1.2-3.6-3c-0.2-1.8,1.2-3.5,3-3.6C70.3,0.1,72.7,0,75,0c41.4,0,75,33.6,75,75
			S116.4,150,75,150z"/>
	</g>
	<g>
		<path fill="#00A3EE" d="M8.4,104.7c-1.3,0-2.6-0.8-3.1-2.1C1.8,93.8,0,84.5,0,75c0-8.1,1.3-16,3.8-23.6c3-9,7.6-17.3,13.7-24.6
			c9-10.7,20.6-18.6,33.8-23c1.7-0.6,3.6,0.4,4.2,2.1c0.6,1.8-0.4,3.6-2.1,4.2c-12,4-22.6,11.2-30.8,21c-5.6,6.7-9.8,14.2-12.5,22.4
			C7.8,60.4,6.7,67.7,6.7,75c0,8.7,1.6,17.1,4.8,25.1c0.7,1.7-0.2,3.7-1.9,4.3C9.2,104.6,8.8,104.7,8.4,104.7z"/>
	</g>
</g>
</svg>
