<svg xmlns="http://www.w3.org/2000/svg" viewBox="0 0 150 150"><path d="M128.6 22.6c.2.1.3.2.4.4 13.3 13.7 20.7 31.9 21 51.1 0 1.9-1.5 3.4-3.3 3.4-1.9 0-3.4-1.5-3.4-3.3-.3-17.5-7.1-34-19.1-46.6-1.3-1.3-1.2-3.5.1-4.7 1.2-1.2 3-1.2 4.3-.3zm-9.5-8.3c1.5 1.1 1.8 3.2.7 4.6-1.1 1.5-3.2 1.8-4.6.7C84.7-2.5 41.9 4.3 19.8 34.8s-15.4 73.3 15.1 95.5c1.7 1.2 3.5 2.4 5.4 3.5 1.6.9 2.1 3 1.2 4.5-.9 1.6-3 2.1-4.5 1.2-2-1.1-4-2.4-5.9-3.8C-2.6 111.4-10 64.5 14.3 30.9S85.5-10 119.1 14.3zm27.2 75.8c1.1.8 1.6 2.2 1.3 3.5a73.5 73.5 0 01-11.9 25.5c-4.8 6.6-10.4 12.2-16.9 16.9-7.7 5.5-16.3 9.5-25.5 11.9-13.6 3.4-27.6 3-40.9-1.2-1.7-.5-2.7-2.4-2.2-4.2.6-1.8 2.4-2.7 4.2-2.2 12.1 3.8 24.9 4.2 37.3 1.1 8.5-2.1 16.3-5.7 23.3-10.8 5.9-4.2 11.1-9.5 15.4-15.4 5.1-7 8.7-14.8 10.9-23.1.4-1.8 2.3-2.9 4.1-2.4.2 0 .6.1.9.4z" fill="#ff6386"/></svg>