<?xml version="1.0" encoding="utf-8"?>
<!-- Generator: Adobe Illustrator 22.1.0, SVG Export Plug-In . SVG Version: 6.00 Build 0)  -->
<svg version="1.1" id="Layer_1" xmlns="http://www.w3.org/2000/svg" xmlns:xlink="http://www.w3.org/1999/xlink" x="0px" y="0px"
	 viewBox="0 0 150 150" style="enable-background:new 0 0 150 150;" xml:space="preserve">
<style type="text/css">
	.st0{fill:#FF6386;}
</style>
<g>
	<g>
		<path class="st0" d="M128.6,22.6c0.2,0.1,0.3,0.2,0.4,0.4c13.3,13.7,20.7,31.9,21,51.1c0,1.9-1.5,3.4-3.3,3.4
			c-1.9,0-3.4-1.5-3.4-3.3c-0.3-17.5-7.1-34-19.1-46.6c-1.3-1.3-1.2-3.5,0.1-4.7C125.5,21.7,127.3,21.7,128.6,22.6z"/>
	</g>
	<g>
		<path class="st0" d="M119.1,14.3c1.5,1.1,1.8,3.2,0.7,4.6c-1.1,1.5-3.2,1.8-4.6,0.7C84.7-2.5,41.9,4.3,19.8,34.8
			s-15.4,73.3,15.1,95.5c1.7,1.2,3.5,2.4,5.4,3.5c1.6,0.9,2.1,3,1.2,4.5c-0.9,1.6-3,2.1-4.5,1.2c-2-1.1-4-2.4-5.9-3.8
			C-2.6,111.4-10,64.5,14.3,30.9S85.5-10,119.1,14.3z"/>
	</g>
	<g>
		<path class="st0" d="M146.3,90.1c1.1,0.8,1.6,2.2,1.3,3.5c-2.3,9.2-6.3,17.8-11.9,25.5c-4.8,6.6-10.4,12.2-16.9,16.9
			c-7.7,5.5-16.3,9.5-25.5,11.9c-13.6,3.4-27.6,3-40.9-1.2c-1.7-0.5-2.7-2.4-2.2-4.2c0.6-1.8,2.4-2.7,4.2-2.2
			c12.1,3.8,24.9,4.2,37.3,1.1c8.5-2.1,16.3-5.7,23.3-10.8c5.9-4.2,11.1-9.5,15.4-15.4c5.1-7,8.7-14.8,10.9-23.1
			c0.4-1.8,2.3-2.9,4.1-2.4C145.6,89.7,146,89.8,146.3,90.1z"/>
	</g>
</g>
</svg>
