<?xml version="1.0" encoding="utf-8"?>
<!-- Generator: Adobe Illustrator 22.1.0, SVG Export Plug-In . SVG Version: 6.00 Build 0)  -->
<svg version="1.1" id="Layer_1" xmlns="http://www.w3.org/2000/svg" xmlns:xlink="http://www.w3.org/1999/xlink" x="0px" y="0px"
	 viewBox="0 0 150 150" style="enable-background:new 0 0 150 150;" xml:space="preserve">
<style type="text/css">
	.st0{fill:#FFCF4A;}
</style>
<g>
	<g>
		<path class="st0" d="M2.4,93.6c-0.1-0.2-0.2-0.4-0.2-0.6c-4.6-18.5-2-38,7.3-54.7c0.9-1.6,3-2.2,4.6-1.3s2.2,3,1.3,4.6
			c-8.5,15.3-10.9,33-6.8,49.9C9.1,93.2,8,95,6.2,95.5C4.6,95.9,3,95.1,2.4,93.6z"/>
	</g>
	<g>
		<path class="st0" d="M6.5,105.5c-0.7-1.6,0-3.6,1.7-4.4c1.6-0.7,3.6,0,4.4,1.7c15.4,34.4,55.8,49.9,90.2,34.6s50-55.8,34.7-90.2
			c-0.9-1.9-1.8-3.9-2.9-5.7c-0.9-1.6-0.3-3.7,1.3-4.5c1.6-0.9,3.7-0.3,4.5,1.3c1.2,2,2.3,4.1,3.2,6.2c16.9,37.8-0.1,82.2-37.9,99
			S23.4,143.4,6.5,105.5z"/>
	</g>
	<g>
		<path class="st0" d="M20.7,26.3c-0.5-1.2-0.3-2.7,0.7-3.7c6.6-6.8,14.4-12.2,23-16.1c7.4-3.3,15.1-5.3,23.1-6.1
			c9.4-0.9,18.9-0.1,28,2.5C109,6.7,121,14.1,130.4,24.4c1.2,1.3,1.1,3.5-0.2,4.7c-1.4,1.3-3.5,1.1-4.7-0.2
			c-8.5-9.3-19.4-16.1-31.7-19.6c-8.4-2.4-17-3.2-25.5-2.3c-7.2,0.7-14.4,2.7-21,5.7c-7.9,3.5-15,8.4-21,14.6
			c-1.3,1.3-3.5,1.3-4.7,0C21.2,27,20.9,26.6,20.7,26.3z"/>
	</g>
</g>
</svg>
