<svg xmlns="http://www.w3.org/2000/svg" viewBox="0 0 150 150"><path fill="#00A3EE" d="M62.4 148.9c-.2 0-.4 0-.6-.1-18.8-3.3-35.5-13.6-47-29-1.1-1.5-.8-3.6.7-4.7s3.6-.8 4.7.7c10.5 14 25.7 23.4 42.8 26.5 1.8.3 3 2.1 2.7 3.9-.3 1.6-1.7 2.7-3.3 2.7zM75 150c-1.8 0-3.3-1.5-3.3-3.3s1.5-3.3 3.3-3.3c37.7 0 68.3-30.6 68.3-68.3S112.7 6.7 75 6.7c-2.1 0-4.3.1-6.4.3-1.8.2-3.5-1.2-3.6-3-.2-1.8 1.2-3.5 3-3.6 2.3-.3 4.7-.4 7-.4 41.4 0 75 33.6 75 75s-33.6 75-75 75zM8.4 104.7c-1.3 0-2.6-.8-3.1-2.1C1.8 93.8 0 84.5 0 75c0-8.1 1.3-16 3.8-23.6 3-9 7.6-17.3 13.7-24.6 9-10.7 20.6-18.6 33.8-23 1.7-.6 3.6.4 4.2 2.1.6 1.8-.4 3.6-2.1 4.2-12 4-22.6 11.2-30.8 21-5.6 6.7-9.8 14.2-12.5 22.4C7.8 60.4 6.7 67.7 6.7 75c0 8.7 1.6 17.1 4.8 25.1.7 1.7-.2 3.7-1.9 4.3-.4.2-.8.3-1.2.3z"/></svg>