<?xml version="1.0" encoding="utf-8"?>
<!-- Generator: Adobe Illustrator 22.1.0, SVG Export Plug-In . SVG Version: 6.00 Build 0)  -->
<svg version="1.1" id="Layer_1" xmlns="http://www.w3.org/2000/svg" xmlns:xlink="http://www.w3.org/1999/xlink" x="0px" y="0px"
	 viewBox="0 0 150 150" style="enable-background:new 0 0 150 150;" xml:space="preserve">
<style type="text/css">
	.st0{fill:#00C1C1;}
</style>
<g>
	<g>
		<path class="st0" d="M148.9,87.6c0,0.2,0,0.4-0.1,0.6c-3.3,18.8-13.6,35.5-29,47c-1.5,1.1-3.6,0.8-4.7-0.7s-0.8-3.6,0.7-4.7
			c14-10.5,23.4-25.7,26.5-42.8c0.3-1.8,2.1-3,3.9-2.7C147.8,84.6,148.9,86,148.9,87.6z"/>
	</g>
	<g>
		<path class="st0" d="M150,75c0,1.8-1.5,3.3-3.3,3.3s-3.3-1.5-3.3-3.3c0-37.7-30.6-68.3-68.3-68.3S6.7,37.3,6.7,75
			c0,2.1,0.1,4.3,0.3,6.4c0.2,1.8-1.2,3.5-3,3.6c-1.8,0.2-3.5-1.2-3.6-3C0.1,79.7,0,77.3,0,75C0,33.6,33.6,0,75,0S150,33.6,150,75z"
			/>
	</g>
	<g>
		<path class="st0" d="M104.7,141.6c0,1.3-0.8,2.6-2.1,3.1c-8.8,3.5-18.1,5.3-27.6,5.3c-8.1,0-16-1.3-23.6-3.8
			c-9-3-17.3-7.6-24.6-13.7c-10.7-9-18.6-20.6-23-33.8c-0.6-1.7,0.4-3.6,2.1-4.2c1.8-0.6,3.6,0.4,4.2,2.1c4,12,11.2,22.6,21,30.8
			c6.7,5.6,14.2,9.8,22.4,12.5c6.9,2.3,14.2,3.4,21.5,3.4c8.7,0,17.1-1.6,25.1-4.8c1.7-0.7,3.7,0.2,4.3,1.9
			C104.6,140.8,104.7,141.2,104.7,141.6z"/>
	</g>
</g>
</svg>
