<svg xmlns="http://www.w3.org/2000/svg" viewBox="0 0 150 150"><path d="M2.4 93.6c-.1-.2-.2-.4-.2-.6-4.6-18.5-2-38 7.3-54.7.9-1.6 3-2.2 4.6-1.3s2.2 3 1.3 4.6c-8.5 15.3-10.9 33-6.8 49.9.5 1.7-.6 3.5-2.4 4-1.6.4-3.2-.4-3.8-1.9zm4.1 11.9c-.7-1.6 0-3.6 1.7-4.4 1.6-.7 3.6 0 4.4 1.7 15.4 34.4 55.8 49.9 90.2 34.6s50-55.8 34.7-90.2c-.9-1.9-1.8-3.9-2.9-5.7-.9-1.6-.3-3.7 1.3-4.5 1.6-.9 3.7-.3 4.5 1.3 1.2 2 2.3 4.1 3.2 6.2 16.9 37.8-.1 82.2-37.9 99s-82.3-.1-99.2-38zm14.2-79.2c-.5-1.2-.3-2.7.7-3.7 6.6-6.8 14.4-12.2 23-16.1C51.8 3.2 59.5 1.2 67.5.4c9.4-.9 18.9-.1 28 2.5C109 6.7 121 14.1 130.4 24.4c1.2 1.3 1.1 3.5-.2 4.7-1.4 1.3-3.5 1.1-4.7-.2-8.5-9.3-19.4-16.1-31.7-19.6-8.4-2.4-17-3.2-25.5-2.3-7.2.7-14.4 2.7-21 5.7-7.9 3.5-15 8.4-21 14.6-1.3 1.3-3.5 1.3-4.7 0-.4-.3-.7-.7-.9-1z" fill="#ffcf4a"/></svg>