<svg xmlns="http://www.w3.org/2000/svg" viewBox="0 0 150 150"><path d="M148.9 87.6c0 .2 0 .4-.1.6-3.3 18.8-13.6 35.5-29 47-1.5 1.1-3.6.8-4.7-.7s-.8-3.6.7-4.7c14-10.5 23.4-25.7 26.5-42.8.3-1.8 2.1-3 3.9-2.7 1.6.3 2.7 1.7 2.7 3.3zM150 75c0 1.8-1.5 3.3-3.3 3.3s-3.3-1.5-3.3-3.3c0-37.7-30.6-68.3-68.3-68.3S6.7 37.3 6.7 75c0 2.1.1 4.3.3 6.4.2 1.8-1.2 3.5-3 3.6-1.8.2-3.5-1.2-3.6-3-.3-2.3-.4-4.7-.4-7C0 33.6 33.6 0 75 0s75 33.6 75 75zm-45.3 66.6c0 1.3-.8 2.6-2.1 3.1-8.8 3.5-18.1 5.3-27.6 5.3-8.1 0-16-1.3-23.6-3.8-9-3-17.3-7.6-24.6-13.7-10.7-9-18.6-20.6-23-33.8-.6-1.7.4-3.6 2.1-4.2 1.8-.6 3.6.4 4.2 2.1 4 12 11.2 22.6 21 30.8 6.7 5.6 14.2 9.8 22.4 12.5 6.9 2.3 14.2 3.4 21.5 3.4 8.7 0 17.1-1.6 25.1-4.8 1.7-.7 3.7.2 4.3 1.9.2.4.3.8.3 1.2z" fill="#00c1c1"/></svg>